<?xml version="1.0" encoding="UTF-8" standalone="no"?>
<!-- Created with Inkscape (http://www.inkscape.org/) -->

<svg
   xmlns:dc="http://purl.org/dc/elements/1.1/"
   xmlns:cc="http://creativecommons.org/ns#"
   xmlns:rdf="http://www.w3.org/1999/02/22-rdf-syntax-ns#"
   xmlns:svg="http://www.w3.org/2000/svg"
   xmlns="http://www.w3.org/2000/svg"
   xmlns:xlink="http://www.w3.org/1999/xlink"
   xmlns:sodipodi="http://sodipodi.sourceforge.net/DTD/sodipodi-0.dtd"
   xmlns:inkscape="http://www.inkscape.org/namespaces/inkscape"
   width="1600"
   height="1200"
   id="svg3030"
   version="1.1"
   inkscape:version="0.48.4 r9939"
   sodipodi:docname="11_gossipperturb.svg">
  <sodipodi:namedview
     id="base"
     pagecolor="#ffffff"
     bordercolor="#666666"
     borderopacity="1.0"
     inkscape:pageopacity="0.0"
     inkscape:pageshadow="2"
     inkscape:zoom="0.24748737"
     inkscape:cx="1469.0865"
     inkscape:cy="715.17699"
     inkscape:document-units="px"
     inkscape:current-layer="layer1"
     showgrid="false"
     inkscape:window-width="1600"
     inkscape:window-height="824"
     inkscape:window-x="0"
     inkscape:window-y="24"
     inkscape:window-maximized="1"
     showguides="true"
     inkscape:guide-bbox="true" />
  <defs
     id="defs3032">
    <clipPath
       clipPathUnits="userSpaceOnUse"
       id="clipPath3174">
      <rect
         style="fill:#ffffff;fill-opacity:1;stroke:#ffffff;stroke-width:3;stroke-linejoin:round;stroke-miterlimit:4;stroke-opacity:1;stroke-dasharray:none;stroke-dashoffset:0"
         id="rect3176"
         width="143.44167"
         height="177.78685"
         x="383.85797"
         y="668.50421" />
    </clipPath>
    <clipPath
       clipPathUnits="userSpaceOnUse"
       id="clipPath3191">
      <rect
         style="fill:#ffffff;fill-opacity:1;stroke:#ffffff;stroke-width:3;stroke-linejoin:round;stroke-miterlimit:4;stroke-opacity:1;stroke-dasharray:none;stroke-dashoffset:0"
         id="rect3193"
         width="197.9899"
         height="228.29448"
         x="1046.5181"
         y="474.55493" />
    </clipPath>
    <clipPath
       id="clipPath3142"
       clipPathUnits="userSpaceOnUse">
      <rect
         y="583.79077"
         x="952.85712"
         height="82.85714"
         width="87.14286"
         id="rect3144"
         style="fill:none;stroke:#000000;stroke-width:3;stroke-linejoin:round;stroke-miterlimit:4;stroke-opacity:1;stroke-dasharray:none;stroke-dashoffset:0" />
    </clipPath>
  </defs>
  <metadata
     id="metadata3035">
    <rdf:RDF>
      <cc:Work
         rdf:about="">
        <dc:format>image/svg+xml</dc:format>
        <dc:type
           rdf:resource="http://purl.org/dc/dcmitype/StillImage" />
        <dc:title />
      </cc:Work>
    </rdf:RDF>
  </metadata>
  <g
     transform="translate(0,147.63782)"
     id="layer1"
     inkscape:groupmode="layer"
     inkscape:label="Calque 1">
    <rect
       transform="translate(0,-147.63782)"
       y="1017.1429"
       x="25.714285"
       height="174.28572"
       width="1557.1428"
       id="rect3994"
       style="fill:#00ff00;fill-opacity:0.25830258000000000;stroke:#008000;stroke-width:1;stroke-linejoin:round;stroke-miterlimit:4;stroke-opacity:1;stroke-dasharray:none;stroke-dashoffset:0" />
    <rect
       style="fill:#0000ff;stroke:none"
       id="rect5447"
       width="1600"
       height="202.85715"
       x="0"
       y="-150.49496" />
    <text
       sodipodi:linespacing="125%"
       id="text4604"
       y="51.140572"
       x="93.243393"
       style="font-size:56.490345px;font-style:normal;font-weight:normal;line-height:125%;letter-spacing:0px;word-spacing:0px;fill:#000000;fill-opacity:1;stroke:none;font-family:Sans"
       xml:space="preserve"><tspan
         y="51.140572"
         x="93.243393"
         id="tspan4606"
         sodipodi:role="line" /></text>
    <text
       xml:space="preserve"
       style="font-size:68.88576508px;font-style:normal;font-weight:normal;line-height:125%;letter-spacing:0px;word-spacing:0px;fill:#ffffff;fill-opacity:1;stroke:none;font-family:Sans"
       x="768.18994"
       y="-71.924423"
       id="text3113-2"
       sodipodi:linespacing="125%"><tspan
         style="text-align:center;text-anchor:middle"
         sodipodi:role="line"
         id="tspan3115-9"
         x="779.15515"
         y="-71.924423">Paradigme proposé : </tspan><tspan
         style="text-align:center;text-anchor:middle"
         id="tspan2998"
         sodipodi:role="line"
         x="768.18994"
         y="14.182783">Protocoles Gossip Perturbés</tspan></text>
    <text
       transform="translate(0,-147.63782)"
       sodipodi:linespacing="125%"
       id="text10228"
       y="311.06577"
       x="527.29962"
       style="font-size:40px;font-style:normal;font-weight:normal;line-height:125%;letter-spacing:0px;word-spacing:0px;fill:#000000;fill-opacity:1;stroke:none;font-family:Sans"
       xml:space="preserve"><tspan
         y="311.06577"
         x="527.29962"
         id="tspan10230"
         sodipodi:role="line" /></text>
    <g
       id="g10696"
       transform="translate(12.121831,-18.182746)" />
    <text
       xml:space="preserve"
       style="font-size:40px;font-style:normal;font-weight:normal;line-height:125%;letter-spacing:0px;word-spacing:0px;fill:#000000;fill-opacity:1;stroke:none;font-family:Sans"
       x="1185.9191"
       y="587.84753"
       id="text17188"
       sodipodi:linespacing="125%"
       transform="translate(0,-147.63782)"><tspan
         sodipodi:role="line"
         id="tspan17190" /></text>
    <image
       width="945.71429"
       height="709.28571"
       xlink:href="file:///home/jfellus/Documents/stephane/anim/dec.gif"
       id="image3061"
       x="28.571394"
       y="94.862183" />
    <g
       transform="matrix(1.0887574,0,0,1.0887574,-22.430263,-14.213254)"
       id="g3148">
      <rect
         style="fill:#ffffff;stroke:#000000;stroke-width:3;stroke-linejoin:round;stroke-miterlimit:4;stroke-opacity:1;stroke-dasharray:none;stroke-dashoffset:0"
         id="rect3146"
         width="93.571426"
         height="92.5"
         x="181.78572"
         y="317.85715"
         transform="translate(0,-147.63782)" />
      <image
         y="559.07648"
         x="888.71429"
         id="image3137"
         xlink:href="file:///home/jfellus/Bureau/soutenance/slides/src/processing.gif"
         height="138"
         width="214"
         clip-path="url(#clipPath3142)"
         transform="translate(-766.78572,-410.35714)" />
    </g>
    <g
       id="g3152"
       transform="matrix(1.0887574,0,0,1.0887574,281.14117,-62.070397)">
      <rect
         transform="translate(0,-147.63782)"
         y="317.85715"
         x="181.78572"
         height="92.5"
         width="93.571426"
         id="rect3154"
         style="fill:#ffffff;stroke:#000000;stroke-width:3;stroke-linejoin:round;stroke-miterlimit:4;stroke-opacity:1;stroke-dasharray:none;stroke-dashoffset:0" />
      <image
         transform="translate(-766.78572,-410.35714)"
         clip-path="url(#clipPath3142)"
         width="214"
         height="138"
         xlink:href="file:///home/jfellus/Bureau/soutenance/slides/src/processing.gif"
         id="image3156"
         x="888.71429"
         y="559.07648" />
    </g>
    <g
       transform="matrix(1.0887574,0,0,1.0887574,549.7126,46.501032)"
       id="g3158">
      <rect
         style="fill:#ffffff;stroke:#000000;stroke-width:3;stroke-linejoin:round;stroke-miterlimit:4;stroke-opacity:1;stroke-dasharray:none;stroke-dashoffset:0"
         id="rect3160"
         width="93.571426"
         height="92.5"
         x="181.78572"
         y="317.85715"
         transform="translate(0,-147.63782)" />
      <image
         y="559.07648"
         x="888.71429"
         id="image3162"
         xlink:href="file:///home/jfellus/Bureau/soutenance/slides/src/processing.gif"
         height="138"
         width="214"
         clip-path="url(#clipPath3142)"
         transform="translate(-766.78572,-410.35714)" />
    </g>
    <g
       id="g3164"
       transform="matrix(1.0887574,0,0,1.0887574,492.56974,425.78675)">
      <rect
         transform="translate(0,-147.63782)"
         y="317.85715"
         x="181.78572"
         height="92.5"
         width="93.571426"
         id="rect3166"
         style="fill:#ffffff;stroke:#000000;stroke-width:3;stroke-linejoin:round;stroke-miterlimit:4;stroke-opacity:1;stroke-dasharray:none;stroke-dashoffset:0" />
      <image
         transform="translate(-766.78572,-410.35714)"
         clip-path="url(#clipPath3142)"
         width="214"
         height="138"
         xlink:href="file:///home/jfellus/Bureau/soutenance/slides/src/processing.gif"
         id="image3168"
         x="888.71429"
         y="559.07648" />
    </g>
    <g
       transform="matrix(1.0887574,0,0,1.0887574,61.855458,396.50103)"
       id="g3170">
      <rect
         style="fill:#ffffff;stroke:#000000;stroke-width:3;stroke-linejoin:round;stroke-miterlimit:4;stroke-opacity:1;stroke-dasharray:none;stroke-dashoffset:0"
         id="rect3172"
         width="93.571426"
         height="92.5"
         x="181.78572"
         y="317.85715"
         transform="translate(0,-147.63782)" />
      <image
         y="559.07648"
         x="888.71429"
         id="image3174"
         xlink:href="file:///home/jfellus/Bureau/soutenance/slides/src/processing.gif"
         height="138"
         width="214"
         clip-path="url(#clipPath3142)"
         transform="translate(-766.78572,-410.35714)" />
    </g>
    <text
       sodipodi:linespacing="125%"
       id="text3176"
       y="165.21933"
       x="1087.1428"
       style="font-size:40px;font-style:normal;font-weight:normal;line-height:125%;letter-spacing:0px;word-spacing:0px;fill:#000000;fill-opacity:1;stroke:none;font-family:Sans"
       xml:space="preserve"><tspan
         y="165.21933"
         x="1087.1428"
         id="tspan3178"
         sodipodi:role="line">Fonction non-linéaire</tspan><tspan
         id="tspan3984"
         y="215.21933"
         x="1087.1428"
         sodipodi:role="line">locale (↔ programme)</tspan></text>
    <path
       transform="translate(0,-147.63782)"
       inkscape:connector-curvature="0"
       id="path3182"
       d="M 1071.4286,315.71429 547.14286,407.14286"
       style="fill:none;stroke:#000000;stroke-width:5;stroke-linecap:butt;stroke-linejoin:miter;stroke-opacity:1;stroke-miterlimit:4;stroke-dasharray:5,5;stroke-dashoffset:0" />
    <path
       sodipodi:nodetypes="ccc"
       transform="translate(0,-147.63782)"
       inkscape:connector-curvature="0"
       id="path3184"
       d="m 602.31001,374.3934 -55.16715,32.03517 62.63126,12.29079"
       style="fill:none;stroke:#000000;stroke-width:5;stroke-linecap:butt;stroke-linejoin:miter;stroke-miterlimit:4;stroke-opacity:1;stroke-dasharray:none" />
    <text
       xml:space="preserve"
       style="font-size:40px;font-style:normal;font-weight:normal;line-height:125%;letter-spacing:0px;word-spacing:0px;fill:#000000;fill-opacity:1;stroke:none;font-family:Sans"
       x="1037.8186"
       y="442.37238"
       id="text3954"
       sodipodi:linespacing="125%"><tspan
         sodipodi:role="line"
         x="1037.8186"
         y="442.37238"
         id="tspan3958">Combinaisons linéaires</tspan><tspan
         id="tspan3962"
         sodipodi:role="line"
         x="1037.8186"
         y="492.37238">asynchrones entre noeuds</tspan></text>
    <path
       sodipodi:nodetypes="cc"
       style="fill:none;stroke:#000000;stroke-width:5;stroke-linecap:butt;stroke-linejoin:miter;stroke-miterlimit:4;stroke-opacity:1;stroke-dasharray:5, 5;stroke-dashoffset:0"
       d="M 1018.9006,471.12224 300.66564,487.79952"
       id="path3964"
       inkscape:connector-curvature="0" />
    <path
       sodipodi:nodetypes="ccc"
       inkscape:connector-curvature="0"
       id="path3184-3"
       d="m 361.48557,463.61702 -59.62589,22.68085 59.81505,22.26877"
       style="fill:none;stroke:#000000;stroke-width:5;stroke-linecap:butt;stroke-linejoin:miter;stroke-miterlimit:4;stroke-opacity:1;stroke-dasharray:none" />
    <text
       sodipodi:linespacing="125%"
       id="text3988"
       y="943.54279"
       x="798.20154"
       style="font-size:44.44754410000000178px;font-style:normal;font-weight:normal;line-height:125%;letter-spacing:0px;word-spacing:0px;fill:#008000;fill-opacity:1;stroke:none;font-family:Sans"
       xml:space="preserve"><tspan
         style="text-align:center;text-anchor:middle;fill:#008000"
         y="943.54279"
         x="798.20154"
         id="tspan3990"
         sodipodi:role="line">La fonction non-linéaire locale vient &quot;perturber&quot; le processus</tspan><tspan
         style="text-align:center;text-anchor:middle;fill:#008000"
         id="tspan3992"
         y="999.10223"
         x="798.20154"
         sodipodi:role="line">de moyennage entre noeuds vers le resultat désiré de l'algorithme</tspan></text>
    <g
       id="g4056"
       transform="matrix(0.75919861,0,0,0.75919861,673.56139,313.57831)">
      <g
         word-spacing="normal"
         letter-spacing="normal"
         font-size-adjust="none"
         font-stretch="normal"
         font-weight="normal"
         font-variant="normal"
         font-style="normal"
         stroke-miterlimit="10.433"
         xml:space="preserve"
         transform="matrix(1.7142857,0,0,-1.7142857,-300,1200)"
         id="content"
         style="font-style:normal;font-variant:normal;font-weight:normal;font-stretch:normal;letter-spacing:normal;word-spacing:normal;text-anchor:start;fill:none;stroke:#000000;stroke-linecap:butt;stroke-linejoin:miter;stroke-miterlimit:10.43299961;stroke-opacity:1;stroke-dasharray:none;stroke-dashoffset:0"><path
           id="path4059"
           d="m 467.04,402.45 0.02,0.1 0.02,0.1 0.03,0.11 0.03,0.11 0.03,0.12 0.03,0.12 0.06,0.24 0.06,0.25 0.06,0.25 0.06,0.25 0.06,0.24 0.02,0.12 0.03,0.11 0.03,0.11 0.02,0.11 0.03,0.1 0.02,0.1 0.02,0.1 0.02,0.09 0.02,0.08 0.01,0.08 0.02,0.07 0.01,0.06 0.01,0.05 0,0.05 0.01,0.03 0,0.02 0,0.01 c 0,0.85 -0.59,1.35 -1.44,1.35 -0.15,0 -1.54,-0.05 -2,-1.78 l -7.17,-28.86 c -0.14,-0.6 -0.14,-0.69 -0.14,-0.8 0,-0.74 0.55,-1.34 1.39,-1.34 1.05,0 1.64,0.9 1.75,1.04 0.19,0.46 0.84,3.05 2.73,10.72 1.6,-1.34 3.83,-1.55 4.83,-1.55 3.49,0 5.44,2.24 6.63,3.64 0.45,-2.25 2.29,-3.64 4.48,-3.64 1.75,0 2.89,1.14 3.69,2.74 0.84,1.8 1.5,4.84 1.5,4.94 0,0.5 -0.45,0.5 -0.59,0.5 -0.5,0 -0.55,-0.21 -0.71,-0.91 -0.84,-3.23 -1.75,-6.17 -3.78,-6.17 -1.34,0 -1.5,1.29 -1.5,2.29 0,1.1 0.6,3.44 1,5.18 l 1.39,5.39 c 0.16,0.75 0.64,2.64 0.85,3.39 0.25,1.14 0.75,3.03 0.75,3.33 0,0.9 -0.71,1.34 -1.44,1.34 -0.25,0 -1.55,-0.05 -1.95,-1.73 l -2.35,-9.33 c -0.59,-2.49 -1.14,-4.58 -1.3,-5.08 -0.04,-0.25 -2.43,-4.78 -6.46,-4.78 -2.49,0 -3.69,1.64 -3.69,4.33 0,1.45 0.34,2.84 0.7,4.25 z"
           inkscape:connector-curvature="0"
           style="fill:#000000;stroke-width:1.53670813;stroke:#000000;stroke-miterlimit:10.43299961;stroke-dasharray:none" /><path
           id="path4061"
           d="m 533.67,401.26 0.14,0 0.15,0 0.14,0 0.07,0.01 0.08,0 0.07,0.01 0.07,0.01 0.07,0.01 0.07,0.01 0.07,0.01 0.06,0.02 0.07,0.02 0.06,0.02 0.06,0.03 0.06,0.02 0.06,0.03 0.05,0.04 0.05,0.04 0.05,0.04 0.04,0.04 0.04,0.05 0.02,0.03 0.01,0.03 0.02,0.03 0.02,0.03 0.01,0.03 0.01,0.03 0.02,0.03 0.01,0.04 0.01,0.03 0,0.04 0.01,0.04 0.01,0.04 0,0.04 0.01,0.04 0,0.05 0,0.04 c 0,1 -0.95,1 -1.64,1 h -29.84 c -0.71,0 -1.65,0 -1.65,-1 0,-0.98 0.94,-0.98 1.69,-0.98 z"
           inkscape:connector-curvature="0"
           style="fill:#000000;stroke-width:0" /><path
           id="path4063"
           d="m 533.72,391.59 0.06,0 0.07,0 0.14,0 0.14,0 0.07,0.01 0.07,0 0.06,0.01 0.07,0.01 0.07,0.01 0.07,0.01 0.07,0.01 0.06,0.02 0.06,0.02 0.07,0.02 0.06,0.03 0.05,0.02 0.06,0.04 0.05,0.03 0.05,0.04 0.05,0.04 0.04,0.05 0.02,0.02 0.02,0.03 0.02,0.02 0.01,0.03 0.02,0.03 0.02,0.03 0.01,0.03 0.01,0.04 0.02,0.03 0.01,0.04 0.01,0.03 0,0.04 0.01,0.04 0.01,0.04 0,0.04 0.01,0.05 0,0.04 0,0.05 c 0,1 -0.95,1 -1.69,1 h -29.75 c -0.75,0 -1.69,0 -1.69,-1 0,-1 0.94,-1 1.65,-1 z"
           inkscape:connector-curvature="0"
           style="fill:#000000;stroke-width:0" /><path
           id="path4065"
           d="m 566.72,440.15 v 5.78 c 0,4.39 2.39,6.78 4.58,6.78 0.15,0 0.9,0 1.65,-0.36 -0.61,-0.19 -1.5,-0.84 -1.5,-2.08 0,-1.15 0.8,-2.15 2.14,-2.15 1.44,0 2.19,1 2.19,2.2 0,1.84 -1.84,3.48 -4.48,3.48 -3.49,0 -7.72,-2.64 -7.72,-7.92 v -5.73 h -3.94 v -1.55 h 3.94 v -16.14 c 0,-2.23 -0.55,-2.23 -3.89,-2.23 v -1.55 c 1.95,0.05 4.29,0.16 5.69,0.16 1.98,0 4.32,0 6.32,-0.16 v 1.55 h -1.04 c -3.69,0 -3.78,0.54 -3.78,2.34 v 16.03 h 5.67 v 1.55 z"
           inkscape:connector-curvature="0"
           style="fill:#000000;stroke-width:0" /><path
           id="path4067"
           d="m 581.55,435.23 v 5.47 l -6.92,-0.55 v -1.55 c 3.48,0 3.89,-0.34 3.89,-2.78 v -13.36 c 0,-2.23 -0.55,-2.23 -3.89,-2.23 v -1.55 c 1.95,0.05 4.28,0.16 5.69,0.16 1.98,0 4.33,0 6.33,-0.16 v 1.55 h -1.05 c -3.69,0 -3.8,0.54 -3.8,2.34 v 7.67 c 0,4.92 2.1,9.36 5.89,9.36 0.34,0 0.44,0 0.55,-0.05 -0.16,-0.04 -1.16,-0.64 -1.16,-1.93 0,-1.41 1.05,-2.14 2.16,-2.14 0.89,0 2.14,0.59 2.14,2.18 0,1.6 -1.55,3.04 -3.69,3.04 -3.64,0 -5.44,-3.33 -6.14,-5.47 z"
           inkscape:connector-curvature="0"
           style="fill:#000000;stroke-width:0" /><path
           id="path4069"
           d="m 598.33,430.2 0.05,1.04 c 0.29,7.42 4.48,8.66 6.18,8.66 5.13,0 5.63,-6.72 5.63,-8.66 h -11.81 l -0.05,-1.04 h 13.9 c 1.1,0 1.24,0 1.24,1.04 0,4.92 -2.69,9.75 -8.91,9.75 -5.78,0 -10.37,-5.12 -10.37,-11.36 0,-6.67 5.23,-11.5 10.97,-11.5 6.07,0 8.31,5.53 8.31,6.47 0,0.5 -0.39,0.61 -0.64,0.61 -0.45,0 -0.55,-0.3 -0.66,-0.7 -1.73,-5.13 -6.22,-5.13 -6.72,-5.13 -2.5,0 -4.48,1.49 -5.62,3.33 -1.5,2.39 -1.5,5.69 -1.5,7.49 z"
           inkscape:connector-curvature="0"
           style="fill:#000000;stroke-width:0" /><path
           id="path4071"
           d="m 633.81,421.73 v -8.93 c 0,-2.25 -0.54,-2.25 -3.89,-2.25 v -1.54 c 1.69,0.06 4.28,0.15 5.58,0.15 1.34,0 3.89,-0.09 5.62,-0.15 v 1.54 c -3.32,0 -3.87,0 -3.87,2.25 v 27.9 h -1.09 l -1.91,-4.54 c -0.64,1.39 -2.69,4.54 -6.67,4.54 -5.78,0 -11.02,-4.83 -11.02,-11.3 0,-6.24 4.85,-11.27 10.63,-11.27 l 0.19,1.1 c -3.63,0 -6.68,4.43 -6.68,10.17 0,5.92 3.49,10.06 7.18,10.06 3.98,0 6.07,-4.34 6.07,-6.98 h 0 v -7.02 c 0,-1.59 -0.89,-3 -1.98,-4.19 -0.66,-0.7 -2.25,-2.04 -4.59,-2.04 l -0.19,-1.1 c 3.48,0 5.53,2.14 6.62,3.6 z"
           inkscape:connector-curvature="0"
           style="fill:#000000;stroke-width:0" /><path
           id="path4073"
           d="m 657.64,406.73 0,0.02 0,0.03 -0.01,0.01 0,0.02 0,0.01 -0.01,0.02 0,0.01 -0.01,0.02 -0.01,0.02 -0.01,0.02 -0.01,0.02 -0.01,0.03 -0.02,0.02 -0.02,0.03 -0.02,0.03 -0.02,0.03 -0.03,0.03 -0.03,0.04 -0.01,0.02 -0.02,0.02 -0.02,0.02 -0.02,0.02 -0.02,0.02 -0.02,0.03 -0.02,0.02 -0.02,0.02 -0.02,0.03 -0.03,0.02 -0.02,0.03 -0.03,0.03 -0.02,0.03 -0.03,0.03 -0.03,0.03 -0.03,0.03 -0.03,0.03 -0.03,0.03 -0.03,0.04 -0.04,0.03 -0.03,0.04 -0.04,0.03 -0.04,0.04 -0.04,0.04 c -6.22,6.28 -7.81,15.69 -7.81,23.31 0,8.67 1.89,17.35 8.02,23.57 0.64,0.6 0.64,0.7 0.64,0.85 0,0.35 -0.19,0.49 -0.49,0.49 -0.5,0 -4.98,-3.38 -7.92,-9.7 -2.55,-5.49 -3.14,-11.02 -3.14,-15.21 0,-3.89 0.55,-9.9 3.28,-15.54 2.98,-6.13 7.28,-9.36 7.78,-9.36 0.3,0 0.49,0.14 0.49,0.5 z"
           inkscape:connector-curvature="0"
           style="fill:#000000;stroke-width:0" /><path
           id="path4075"
           d="m 666.3,429.54 0,0.38 0.01,0.36 0.01,0.36 0.02,0.35 0.03,0.34 0.03,0.34 0.04,0.32 0.04,0.32 0.04,0.31 0.06,0.3 0.05,0.29 0.06,0.29 0.14,0.55 0.15,0.51 0.17,0.49 0.18,0.46 0.19,0.43 0.21,0.4 0.22,0.38 0.23,0.35 0.24,0.32 0.25,0.31 0.26,0.27 0.27,0.26 0.27,0.23 0.27,0.21 0.28,0.19 0.28,0.16 0.28,0.15 0.29,0.13 0.28,0.12 0.28,0.09 0.28,0.08 0.27,0.06 0.27,0.05 0.27,0.03 0.26,0.02 0.25,0.01 c 0.44,0 3.58,-0.05 5.33,-1.85 -2.05,-0.15 -2.34,-1.64 -2.34,-2.29 0,-1.3 0.89,-2.3 2.29,-2.3 1.28,0 2.28,0.86 2.28,2.34 0,3.39 -3.78,5.33 -7.62,5.33 -6.22,0 -10.81,-5.37 -10.81,-11.54 0,-6.38 4.93,-11.32 10.72,-11.32 6.67,0 8.26,5.99 8.26,6.47 0,0.5 -0.5,0.5 -0.64,0.5 -0.45,0 -0.55,-0.19 -0.66,-0.5 -1.43,-4.62 -4.67,-5.22 -6.51,-5.22 -2.64,0 -7.03,2.14 -7.03,10.16 z"
           inkscape:connector-curvature="0"
           style="fill:#000000;stroke-width:0" /><path
           id="path4077"
           d="m 706.02,429.34 -0.02,0.59 -0.04,0.59 -0.07,0.58 -0.1,0.57 -0.12,0.56 -0.15,0.55 -0.18,0.54 -0.2,0.53 -0.22,0.51 -0.24,0.5 -0.27,0.49 -0.29,0.48 -0.31,0.45 -0.33,0.44 -0.34,0.43 -0.37,0.4 -0.38,0.39 -0.4,0.37 -0.42,0.35 -0.43,0.32 -0.45,0.31 -0.46,0.28 -0.48,0.26 -0.48,0.24 -0.5,0.21 -0.51,0.18 -0.52,0.16 -0.54,0.13 -0.53,0.11 -0.55,0.07 -0.56,0.05 -0.56,0.01 -0.05,-1.09 c 2.19,0 4.33,-1.1 5.63,-3.24 1.3,-2.14 1.3,-5.03 1.3,-6.92 0,-1.79 0,-4.48 -1.1,-6.67 -1.09,-2.25 -3.28,-3.69 -5.78,-3.69 h 0 c -2.14,0 -4.33,1.05 -5.67,3.33 -1.25,2.2 -1.25,5.24 -1.25,7.03 0,1.94 0,4.63 1.19,6.83 1.35,2.28 3.68,3.33 5.68,3.33 l 0.05,1.09 c -6.22,0 -11.06,-5.42 -11.06,-11.65 0,-6.43 5.18,-11.21 11.01,-11.21 6.03,0 11.07,4.88 11.07,11.21 z"
           inkscape:connector-curvature="0"
           style="fill:#000000;stroke-width:0" /><path
           id="path4079"
           d="m 712.99,435.82 v -13.36 c 0,-2.23 -0.55,-2.23 -3.89,-2.23 v -1.55 c 1.75,0.05 4.28,0.16 5.62,0.16 1.3,0 3.89,-0.11 5.58,-0.16 v 1.55 c -3.33,0 -3.87,0 -3.87,2.23 v 9.17 c 0,5.19 3.53,7.97 6.72,7.97 3.13,0 3.68,-2.69 3.68,-5.53 v -11.61 c 0,-2.23 -0.55,-2.23 -3.89,-2.23 v -1.55 c 1.75,0.05 4.3,0.16 5.64,0.16 1.3,0 3.88,-0.11 5.58,-0.16 v 1.55 c -3.34,0 -3.89,0 -3.89,2.23 v 9.17 c 0,5.19 3.55,7.97 6.73,7.97 3.15,0 3.69,-2.69 3.69,-5.53 v -11.61 c 0,-2.23 -0.54,-2.23 -3.89,-2.23 v -1.55 c 1.73,0.05 4.28,0.16 5.63,0.16 1.29,0 3.89,-0.11 5.57,-0.16 v 1.55 c -2.57,0 -3.82,0 -3.87,1.5 v 9.51 c 0,4.28 0,5.83 -1.55,7.61 -0.7,0.86 -2.34,1.85 -5.23,1.85 -4.19,0 -6.38,-2.99 -7.22,-4.88 -0.7,4.33 -4.39,4.88 -6.63,4.88 -3.64,0 -5.98,-2.15 -7.37,-5.22 v 5.22 l -7.03,-0.55 v -1.55 c 3.48,0 3.89,-0.34 3.89,-2.78 z"
           inkscape:connector-curvature="0"
           style="fill:#000000;stroke-width:0" /><path
           id="path4081"
           d="m 763.41,431.13 0,0.37 0,0.39 -0.01,0.39 -0.01,0.41 -0.04,0.84 -0.06,0.88 -0.09,0.92 -0.1,0.95 -0.14,0.98 -0.16,1 -0.2,1.02 -0.23,1.03 -0.26,1.06 -0.31,1.05 -0.35,1.07 -0.39,1.07 -0.21,0.53 -0.23,0.53 -0.24,0.53 -0.25,0.53 c -2.98,6.12 -7.26,9.36 -7.76,9.36 -0.3,0 -0.5,-0.19 -0.5,-0.49 0,-0.15 0,-0.25 0.93,-1.15 4.9,-4.92 7.74,-12.85 7.74,-23.27 0,-8.51 -1.84,-17.28 -8.03,-23.56 -0.64,-0.59 -0.64,-0.7 -0.64,-0.84 0,-0.3 0.2,-0.5 0.5,-0.5 0.5,0 4.97,3.39 7.92,9.72 2.53,5.46 3.12,11 3.12,15.18 z"
           inkscape:connector-curvature="0"
           style="fill:#000000;stroke-width:0" /><polyline
           id="polyline4083"
           points="558,396 768.48,396 768.48,398.04 558,398.04 "
           style="fill:#000000;fill-rule:nonzero;stroke-width:0" /><path
           id="path4085"
           d="m 603.32,372.23 v 5.78 c 0,4.39 2.39,6.78 4.58,6.78 0.15,0 0.9,0 1.65,-0.36 -0.6,-0.18 -1.5,-0.84 -1.5,-2.07 0,-1.16 0.8,-2.16 2.15,-2.16 1.43,0 2.18,1 2.18,2.2 0,1.85 -1.84,3.49 -4.48,3.49 -3.49,0 -7.72,-2.64 -7.72,-7.93 v -5.73 h -3.94 v -1.55 h 3.94 v -16.14 c 0,-2.23 -0.55,-2.23 -3.89,-2.23 v -1.55 c 1.95,0.05 4.3,0.16 5.69,0.16 1.98,0 4.32,0 6.32,-0.16 v 1.55 h -1.04 c -3.69,0 -3.78,0.55 -3.78,2.34 v 16.03 h 5.67 v 1.55 z"
           inkscape:connector-curvature="0"
           style="fill:#000000;stroke-width:0" /><path
           id="path4087"
           d="m 618.15,367.31 v 5.47 l -6.92,-0.55 v -1.55 c 3.49,0 3.89,-0.34 3.89,-2.78 v -13.36 c 0,-2.23 -0.55,-2.23 -3.89,-2.23 v -1.55 c 1.95,0.05 4.28,0.16 5.69,0.16 1.98,0 4.33,0 6.33,-0.16 v 1.55 h -1.05 c -3.69,0 -3.8,0.55 -3.8,2.34 v 7.67 c 0,4.93 2.1,9.36 5.89,9.36 0.35,0 0.44,0 0.55,-0.04 -0.16,-0.05 -1.16,-0.64 -1.16,-1.94 0,-1.41 1.05,-2.14 2.16,-2.14 0.89,0 2.14,0.59 2.14,2.19 0,1.59 -1.55,3.03 -3.69,3.03 -3.64,0 -5.44,-3.33 -6.14,-5.47 z"
           inkscape:connector-curvature="0"
           style="fill:#000000;stroke-width:0" /><path
           id="path4089"
           d="m 634.93,362.28 0.05,1.04 c 0.29,7.43 4.48,8.66 6.18,8.66 5.13,0 5.63,-6.72 5.63,-8.66 h -11.81 l -0.05,-1.04 h 13.91 c 1.09,0 1.23,0 1.23,1.04 0,4.93 -2.69,9.75 -8.91,9.75 -5.78,0 -10.37,-5.12 -10.37,-11.36 0,-6.67 5.23,-11.5 10.97,-11.5 6.08,0 8.31,5.54 8.31,6.47 0,0.5 -0.39,0.61 -0.64,0.61 -0.45,0 -0.55,-0.29 -0.66,-0.7 -1.73,-5.13 -6.22,-5.13 -6.72,-5.13 -2.5,0 -4.48,1.49 -5.62,3.33 -1.5,2.39 -1.5,5.69 -1.5,7.49 z"
           inkscape:connector-curvature="0"
           style="fill:#000000;stroke-width:0" /><path
           id="path4091"
           d="m 670.41,353.81 v -8.92 c 0,-2.25 -0.54,-2.25 -3.89,-2.25 v -1.55 c 1.69,0.06 4.28,0.16 5.58,0.16 1.35,0 3.89,-0.1 5.63,-0.16 v 1.55 c -3.33,0 -3.88,0 -3.88,2.25 v 27.89 h -1.09 l -1.91,-4.53 c -0.64,1.39 -2.69,4.53 -6.67,4.53 -5.78,0 -11.02,-4.83 -11.02,-11.3 0,-6.23 4.85,-11.27 10.63,-11.27 l 0.19,1.1 c -3.63,0 -6.68,4.44 -6.68,10.17 0,5.92 3.49,10.06 7.18,10.06 3.98,0 6.07,-4.34 6.07,-6.98 h 0 v -7.02 c 0,-1.59 -0.89,-3 -1.98,-4.18 -0.66,-0.71 -2.25,-2.05 -4.59,-2.05 l -0.19,-1.1 c 3.48,0 5.53,2.15 6.62,3.6 z"
           inkscape:connector-curvature="0"
           style="fill:#000000;stroke-width:0" /><path
           id="path4093"
           d="m 694.24,338.81 0,0.03 0,0.02 -0.01,0.02 0,0.01 0,0.01 -0.01,0.02 0,0.02 -0.01,0.01 -0.01,0.02 -0.01,0.02 -0.01,0.03 -0.01,0.02 -0.02,0.02 -0.02,0.03 -0.02,0.03 -0.02,0.03 -0.03,0.04 -0.03,0.03 -0.01,0.02 -0.02,0.02 -0.02,0.02 -0.02,0.02 -0.02,0.03 -0.02,0.02 -0.02,0.02 -0.02,0.03 -0.02,0.02 -0.02,0.03 -0.03,0.02 -0.02,0.03 -0.03,0.03 -0.03,0.03 -0.03,0.03 -0.03,0.03 -0.03,0.03 -0.03,0.03 -0.03,0.04 -0.04,0.03 -0.03,0.04 -0.04,0.04 -0.04,0.03 -0.03,0.04 c -6.22,6.28 -7.82,15.69 -7.82,23.31 0,8.68 1.89,17.35 8.02,23.57 0.64,0.61 0.64,0.7 0.64,0.86 0,0.34 -0.19,0.48 -0.49,0.48 -0.5,0 -4.98,-3.37 -7.92,-9.7 -2.55,-5.49 -3.14,-11.02 -3.14,-15.21 0,-3.89 0.55,-9.9 3.28,-15.54 2.99,-6.13 7.28,-9.36 7.78,-9.36 0.3,0 0.49,0.14 0.49,0.5 z"
           inkscape:connector-curvature="0"
           style="fill:#000000;stroke-width:0" /><path
           id="path4095"
           d="m 705.79,372.23 v 5.78 c 0,4.39 2.39,6.78 4.58,6.78 0.15,0 0.9,0 1.65,-0.36 -0.61,-0.18 -1.5,-0.84 -1.5,-2.07 0,-1.16 0.8,-2.16 2.14,-2.16 1.44,0 2.19,1 2.19,2.2 0,1.85 -1.84,3.49 -4.48,3.49 -3.49,0 -7.72,-2.64 -7.72,-7.93 v -5.73 h -3.94 v -1.55 h 3.94 v -16.14 c 0,-2.23 -0.55,-2.23 -3.89,-2.23 v -1.55 c 1.95,0.05 4.29,0.16 5.69,0.16 1.98,0 4.32,0 6.32,-0.16 v 1.55 h -1.04 c -3.69,0 -3.78,0.55 -3.78,2.34 v 16.03 h 5.67 v 1.55 z"
           inkscape:connector-curvature="0"
           style="fill:#000000;stroke-width:0" /><path
           id="path4097"
           d="m 726.82,363.21 -0.01,0.38 0,0.38 -0.01,0.39 -0.01,0.41 -0.04,0.84 -0.06,0.88 -0.08,0.92 -0.11,0.95 -0.14,0.98 -0.16,1 -0.19,1.02 -0.23,1.04 -0.27,1.05 -0.31,1.06 -0.35,1.06 -0.39,1.07 -0.21,0.53 -0.23,0.53 -0.23,0.53 -0.26,0.53 c -2.98,6.13 -7.26,9.36 -7.76,9.36 -0.3,0 -0.5,-0.19 -0.5,-0.48 0,-0.16 0,-0.25 0.94,-1.16 4.89,-4.92 7.73,-12.84 7.73,-23.27 0,-8.51 -1.84,-17.28 -8.03,-23.56 -0.64,-0.59 -0.64,-0.7 -0.64,-0.84 0,-0.3 0.2,-0.5 0.5,-0.5 0.5,0 4.97,3.39 7.92,9.72 2.53,5.47 3.13,11 3.13,15.18 z"
           inkscape:connector-curvature="0"
           style="fill:#000000;stroke-width:0" /></g>    </g>
  </g>
</svg>
