<?xml version="1.0" encoding="UTF-8" standalone="no"?>
<!-- Created with Inkscape (http://www.inkscape.org/) -->

<svg
   xmlns:dc="http://purl.org/dc/elements/1.1/"
   xmlns:cc="http://creativecommons.org/ns#"
   xmlns:rdf="http://www.w3.org/1999/02/22-rdf-syntax-ns#"
   xmlns:svg="http://www.w3.org/2000/svg"
   xmlns="http://www.w3.org/2000/svg"
   xmlns:sodipodi="http://sodipodi.sourceforge.net/DTD/sodipodi-0.dtd"
   xmlns:inkscape="http://www.inkscape.org/namespaces/inkscape"
   sodipodi:docname="46_ccl.svg"
   inkscape:version="0.48.4 r9939"
   version="1.1"
   id="svg3030"
   height="1200"
   width="1600">
  <sodipodi:namedview
     id="base"
     pagecolor="#ffffff"
     bordercolor="#666666"
     borderopacity="1.0"
     inkscape:pageopacity="0.0"
     inkscape:pageshadow="2"
     inkscape:zoom="0.45254834"
     inkscape:cx="917.40168"
     inkscape:cy="552.15236"
     inkscape:document-units="px"
     inkscape:current-layer="layer1"
     showgrid="false"
     inkscape:window-width="1600"
     inkscape:window-height="824"
     inkscape:window-x="0"
     inkscape:window-y="24"
     inkscape:window-maximized="1"
     showguides="true"
     inkscape:guide-bbox="true" />
  <defs
     id="defs3032">
    <clipPath
       clipPathUnits="userSpaceOnUse"
       id="clipPath3174">
      <rect
         style="fill:#ffffff;fill-opacity:1;stroke:#ffffff;stroke-width:3;stroke-linejoin:round;stroke-miterlimit:4;stroke-opacity:1;stroke-dasharray:none;stroke-dashoffset:0"
         id="rect3176"
         width="143.44167"
         height="177.78685"
         x="383.85797"
         y="668.50421" />
    </clipPath>
    <clipPath
       clipPathUnits="userSpaceOnUse"
       id="clipPath3191">
      <rect
         style="fill:#ffffff;fill-opacity:1;stroke:#ffffff;stroke-width:3;stroke-linejoin:round;stroke-miterlimit:4;stroke-opacity:1;stroke-dasharray:none;stroke-dashoffset:0"
         id="rect3193"
         width="197.9899"
         height="228.29448"
         x="1046.5181"
         y="474.55493" />
    </clipPath>
  </defs>
  <metadata
     id="metadata3035">
    <rdf:RDF>
      <cc:Work
         rdf:about="">
        <dc:format>image/svg+xml</dc:format>
        <dc:type
           rdf:resource="http://purl.org/dc/dcmitype/StillImage" />
        <dc:title />
      </cc:Work>
    </rdf:RDF>
  </metadata>
  <g
     transform="translate(0,147.63782)"
     id="layer1"
     inkscape:groupmode="layer"
     inkscape:label="Calque 1">
    <rect
       style="fill:#0000ff;stroke:none"
       id="rect5447"
       width="1600"
       height="86.474342"
       x="0"
       y="-150.49496" />
    <text
       sodipodi:linespacing="125%"
       id="text4604"
       y="51.140572"
       x="93.243393"
       style="font-size:56.490345px;font-style:normal;font-weight:normal;line-height:125%;letter-spacing:0px;word-spacing:0px;fill:#000000;fill-opacity:1;stroke:none;font-family:Sans"
       xml:space="preserve"><tspan
         y="51.140572"
         x="93.243393"
         id="tspan4606"
         sodipodi:role="line" /></text>
    <text
       xml:space="preserve"
       style="font-size:60.34103012px;font-style:normal;font-weight:normal;line-height:125%;letter-spacing:0px;word-spacing:0px;fill:#ffffff;fill-opacity:1;stroke:none;font-family:Sans"
       x="804.81427"
       y="-88.788033"
       id="text3113-2"
       sodipodi:linespacing="125%"><tspan
         style="text-align:center;text-anchor:middle"
         id="tspan6546"
         sodipodi:role="line"
         x="804.81427"
         y="-88.788033">Conclusion et Perspectives</tspan></text>
    <text
       transform="translate(0,-147.63782)"
       sodipodi:linespacing="125%"
       id="text10228"
       y="311.06577"
       x="527.29962"
       style="font-size:40px;font-style:normal;font-weight:normal;line-height:125%;letter-spacing:0px;word-spacing:0px;fill:#000000;fill-opacity:1;stroke:none;font-family:Sans"
       xml:space="preserve"><tspan
         y="311.06577"
         x="527.29962"
         id="tspan10230"
         sodipodi:role="line" /></text>
    <g
       id="g10696"
       transform="translate(12.121831,-18.182746)" />
    <text
       xml:space="preserve"
       style="font-size:40px;font-style:normal;font-weight:normal;line-height:125%;letter-spacing:0px;word-spacing:0px;fill:#000000;fill-opacity:1;stroke:none;font-family:Sans"
       x="1185.9191"
       y="587.84753"
       id="text17188"
       sodipodi:linespacing="125%"
       transform="translate(0,-147.63782)"><tspan
         sodipodi:role="line"
         id="tspan17190" /></text>
    <text
       transform="translate(0,-147.63782)"
       sodipodi:linespacing="125%"
       id="text28563"
       y="285.1806"
       x="488.34561"
       style="font-size:40px;font-style:normal;font-weight:normal;line-height:125%;letter-spacing:0px;word-spacing:0px;fill:#000000;fill-opacity:1;stroke:none;font-family:Sans"
       xml:space="preserve"><tspan
         y="285.1806"
         x="488.34561"
         id="tspan28565"
         sodipodi:role="line" /></text>
    <text
       sodipodi:linespacing="125%"
       id="text13786"
       y="-12.502778"
       x="69.635918"
       style="font-size:36.57535172px;font-style:normal;font-weight:normal;line-height:125%;letter-spacing:0px;word-spacing:0px;fill:#000000;fill-opacity:1;stroke:none;font-family:Sans"
       xml:space="preserve"><tspan
         id="tspan13790"
         y="-12.502778"
         x="69.635918"
         sodipodi:role="line"
         style="font-weight:bold">◈ Système d'apprentissage décentralisé et asynchrone:</tspan><tspan
         id="tspan13794"
         y="33.216412"
         x="69.635918"
         sodipodi:role="line"
         style="font-weight:bold">Protocoles Gossip Perturbés</tspan><tspan
         id="tspan13832"
         y="78.9356"
         x="69.635918"
         sodipodi:role="line" /><tspan
         id="tspan13796"
         y="124.65479"
         x="69.635918"
         sodipodi:role="line" /><tspan
         id="tspan13800"
         y="170.37398"
         x="69.635918"
         sodipodi:role="line" /><tspan
         id="tspan13802"
         y="216.09317"
         x="69.635918"
         sodipodi:role="line"
         style="font-weight:bold">◈ Application à l'indexation multimédia </tspan><tspan
         id="tspan13804"
         y="261.81235"
         x="69.635918"
         sodipodi:role="line" /><tspan
         y="307.53156"
         x="69.635918"
         sodipodi:role="line"
         id="tspan14373" /><tspan
         id="tspan13808"
         y="353.25073"
         x="69.635918"
         sodipodi:role="line"
         style="font-weight:bold">◈ Validation dans le contexte du projet financeur PIA Culture3DClouds</tspan><tspan
         id="tspan13816"
         y="398.96994"
         x="69.635918"
         sodipodi:role="line">Plateforme d'indexation decentralisée et asynchrone pour les collections </tspan><tspan
         y="444.68912"
         x="69.635918"
         sodipodi:role="line"
         id="tspan14387">patrimoniales (images, modèles 3D)</tspan><tspan
         id="tspan13818"
         y="490.40829"
         x="69.635918"
         sodipodi:role="line" /><tspan
         y="536.1275"
         x="69.635918"
         sodipodi:role="line"
         id="tspan14375"><tspan
   style="font-weight:bold"
   id="tspan14377">◈ libAGML</tspan> : une librairie logicielle de machine learning sous</tspan><tspan
         id="tspan13820"
         y="581.84668"
         x="69.635918"
         sodipodi:role="line">licence libre pour illustrer/explorer les capacités </tspan><tspan
         id="tspan13830"
         y="627.56586"
         x="69.635918"
         sodipodi:role="line">des protocoles Gossip asynchrones</tspan><tspan
         id="tspan13812"
         y="673.2851"
         x="69.635918"
         sodipodi:role="line" /><tspan
         id="tspan13814"
         y="719.00427"
         x="69.635918"
         sodipodi:role="line" /></text>
    <text
       xml:space="preserve"
       style="font-size:43.93725204px;font-style:normal;font-weight:normal;line-height:125%;letter-spacing:0px;word-spacing:0px;fill:#000000;fill-opacity:1;stroke:none;font-family:Sans"
       x="24.102715"
       y="716.10693"
       id="text13836"
       sodipodi:linespacing="125%"><tspan
         style="font-weight:bold"
         sodipodi:role="line"
         x="24.102715"
         y="716.10693"
         id="tspan13868">Perspectives</tspan></text>
    <text
       sodipodi:linespacing="125%"
       id="text13786-9"
       y="790.98883"
       x="22.436565"
       style="font-size:39.15123367px;font-style:normal;font-weight:normal;line-height:125%;letter-spacing:0px;word-spacing:0px;fill:#000000;fill-opacity:1;stroke:none;font-family:Sans"
       xml:space="preserve"><tspan
         id="tspan14206"
         y="790.98883"
         x="22.436565"
         sodipodi:role="line">◈ Borne étroite sur les </tspan><tspan
         y="839.92786"
         x="22.436565"
         sodipodi:role="line"
         id="tspan14393">protocoles Sum-Weight :</tspan></text>
    <g
       id="g14252"
       transform="matrix(0.57980854,0,0,0.57980854,237.96386,548.32675)">
      <g
         word-spacing="normal"
         letter-spacing="normal"
         font-size-adjust="none"
         font-stretch="normal"
         font-weight="normal"
         font-variant="normal"
         font-style="normal"
         stroke-miterlimit="10.433"
         xml:space="preserve"
         transform="matrix(1.7142857,0,0,-1.7142857,-300,1200)"
         id="content"
         style="font-style:normal;font-variant:normal;font-weight:normal;font-stretch:normal;letter-spacing:normal;word-spacing:normal;text-anchor:start;fill:none;stroke:#000000;stroke-linecap:butt;stroke-linejoin:miter;stroke-miterlimit:10.43299961;stroke-opacity:1;stroke-dasharray:none;stroke-dashoffset:0"><path
           id="path14255"
           d="m 476.8,436.43 0.02,0.07 0.01,0.06 0.03,0.12 0.03,0.12 0.03,0.11 0.03,0.11 0.03,0.09 0.03,0.1 0.03,0.09 0.03,0.08 0.03,0.08 0.03,0.07 0.03,0.07 0.03,0.06 0.03,0.06 0.03,0.06 0.03,0.05 0.03,0.05 0.03,0.04 0.04,0.04 0.03,0.04 0.04,0.04 0.03,0.03 0.04,0.03 0.04,0.03 0.04,0.02 0.05,0.03 0.04,0.02 0.05,0.02 0.04,0.01 0.05,0.02 0.06,0.01 0.05,0.02 c 0.45,0.11 2.1,0.11 3.14,0.11 5.03,0 7.27,-0.21 7.27,-4.1 0,-0.73 -0.19,-2.68 -0.39,-3.98 -0.05,-0.19 -0.16,-0.8 -0.16,-0.94 0,-0.3 0.16,-0.66 0.59,-0.66 0.57,0 0.66,0.41 0.75,1.16 l 1.35,8.66 c 0.06,0.2 0.11,0.7 0.11,0.86 0,0.54 -0.5,0.54 -1.35,0.54 H 461.6 c -1.21,0 -1.25,-0.06 -1.6,-1 l -2.98,-8.76 c -0.06,-0.11 -0.3,-0.8 -0.3,-0.91 0,-0.3 0.24,-0.55 0.6,-0.55 0.5,0 0.54,0.25 0.84,1.05 2.69,7.72 3.98,8.63 11.36,8.63 h 1.94 c 1.4,0 1.4,-0.21 1.4,-0.6 0,-0.31 -0.15,-0.9 -0.2,-1.04 l -6.67,-26.61 c -0.45,-1.85 -0.61,-2.39 -5.94,-2.39 -1.8,0 -2.09,0 -2.09,-0.96 0,-0.59 0.54,-0.59 0.84,-0.59 1.36,0 2.75,0.09 4.09,0.09 1.4,0 2.85,0.07 4.24,0.07 1.39,0 2.78,-0.07 4.14,-0.07 1.44,0 2.94,-0.09 4.33,-0.09 0.5,0 1.09,0 1.09,1 0,0.55 -0.39,0.55 -1.69,0.55 -1.25,0 -1.89,0 -3.18,0.09 -1.46,0.16 -1.85,0.3 -1.85,1.09 0,0.07 0,0.32 0.19,1.05 z"
           inkscape:connector-curvature="0"
           style="fill:#000000;stroke-width:0" /><path
           id="path14257"
           d="m 539.67,422.5 0.14,0 0.15,0 0.14,0 0.07,0.01 0.08,0 0.07,0.01 0.07,0.01 0.07,0.01 0.07,0.01 0.07,0.01 0.06,0.02 0.07,0.02 0.06,0.02 0.06,0.02 0.06,0.03 0.06,0.03 0.05,0.04 0.05,0.03 0.05,0.05 0.04,0.04 0.04,0.05 0.02,0.03 0.01,0.03 0.02,0.02 0.02,0.03 0.01,0.03 0.01,0.04 0.02,0.03 0.01,0.04 0.01,0.03 0,0.04 0.01,0.04 0.01,0.04 0,0.04 0.01,0.04 0,0.04 0,0.05 c 0,1 -0.95,1 -1.64,1 h -29.84 c -0.71,0 -1.65,0 -1.65,-1 0,-0.98 0.94,-0.98 1.69,-0.98 z"
           inkscape:connector-curvature="0"
           style="fill:#000000;stroke-width:0" /><path
           id="path14259"
           d="m 539.72,412.82 0.06,0 0.07,0 0.14,0.01 0.14,0 0.07,0 0.07,0.01 0.06,0.01 0.07,0 0.07,0.01 0.07,0.02 0.07,0.01 0.06,0.02 0.06,0.02 0.07,0.02 0.06,0.02 0.05,0.03 0.06,0.03 0.05,0.04 0.05,0.04 0.05,0.04 0.04,0.05 0.02,0.02 0.02,0.03 0.02,0.02 0.01,0.03 0.02,0.03 0.02,0.03 0.01,0.03 0.01,0.03 0.02,0.04 0.01,0.03 0.01,0.04 0,0.04 0.01,0.04 0.01,0.04 0,0.04 0.01,0.04 0,0.05 0,0.04 c 0,1 -0.95,1 -1.69,1 h -29.75 c -0.75,0 -1.69,0 -1.69,-1 0,-1 0.94,-1 1.65,-1 z"
           inkscape:connector-curvature="0"
           style="fill:#000000;stroke-width:0" /><path
           id="path14261"
           d="m 596.71,430.21 -0.01,0.59 -0.02,0.58 -0.04,0.57 -0.06,0.56 -0.08,0.55 -0.09,0.53 -0.11,0.52 -0.12,0.51 -0.14,0.5 -0.16,0.48 -0.18,0.46 -0.19,0.45 -0.22,0.43 -0.23,0.42 -0.24,0.4 -0.27,0.38 -0.28,0.37 -0.3,0.34 -0.32,0.32 -0.33,0.31 -0.36,0.28 -0.37,0.26 -0.39,0.24 -0.41,0.22 -0.43,0.19 -0.45,0.17 -0.46,0.15 -0.49,0.12 -0.5,0.09 -0.52,0.07 -0.54,0.04 -0.56,0.01 c -5.19,0 -9.57,-4.18 -9.93,-4.48 -3.98,-3.94 -5.46,-8.42 -5.46,-8.52 0,-0.29 0.25,-0.36 0.5,-0.36 0.93,0 1.73,0.5 2.48,1.05 0.89,0.66 0.95,0.8 1.5,1.95 0.44,0.99 1.59,3.44 3.44,5.54 1.18,1.34 2.18,2.09 4.18,2.09 4.83,0 7.91,-4 7.91,-10.52 0,-10.17 -7.22,-20.23 -16.44,-20.23 -7.07,0 -10.95,5.64 -10.95,12.75 0,6.78 3.48,14.25 10.77,18.55 0.48,0.29 1.98,1.18 1.98,1.84 0,0.34 -0.39,0.34 -0.5,0.34 -1.73,0 -16.48,-7.92 -16.48,-22.87 0,-6.97 3.64,-13.34 11.9,-13.34 9.72,0 23.97,9.76 23.97,25.1 z"
           inkscape:connector-curvature="0"
           style="fill:#000000;stroke-width:0" /><path
           id="path14263"
           d="m 615.52,394.25 0,0.02 -0.01,0.03 0,0.01 0,0.02 0,0.01 -0.01,0.02 0,0.01 -0.01,0.02 -0.01,0.02 -0.01,0.02 -0.01,0.02 -0.01,0.03 -0.02,0.02 -0.02,0.03 -0.02,0.03 -0.02,0.03 -0.03,0.03 -0.03,0.04 -0.02,0.02 -0.01,0.02 -0.02,0.02 -0.02,0.02 -0.02,0.02 -0.02,0.03 -0.02,0.02 -0.02,0.02 -0.02,0.03 -0.03,0.02 -0.02,0.03 -0.03,0.03 -0.02,0.03 -0.03,0.03 -0.03,0.03 -0.03,0.03 -0.03,0.03 -0.03,0.03 -0.04,0.04 -0.03,0.03 -0.03,0.04 -0.04,0.03 -0.04,0.04 -0.04,0.04 c -6.22,6.28 -7.81,15.69 -7.81,23.31 0,8.67 1.89,17.35 8.02,23.56 0.64,0.61 0.64,0.71 0.64,0.86 0,0.35 -0.19,0.49 -0.49,0.49 -0.5,0 -4.98,-3.38 -7.92,-9.7 -2.55,-5.49 -3.14,-11.02 -3.14,-15.21 0,-3.89 0.55,-9.9 3.28,-15.54 2.98,-6.13 7.28,-9.36 7.78,-9.36 0.3,0 0.49,0.14 0.49,0.5 z"
           inkscape:connector-curvature="0"
           style="fill:#000000;stroke-width:0" /><path
           id="path14265"
           d="m 656.02,435 0.1,0.37 0.05,0.18 0.06,0.17 0.06,0.18 0.06,0.17 0.08,0.16 0.07,0.16 0.09,0.16 0.09,0.16 0.1,0.15 0.1,0.14 0.12,0.14 0.12,0.14 0.13,0.13 0.14,0.12 0.16,0.12 0.16,0.11 0.17,0.11 0.19,0.11 0.2,0.09 0.21,0.09 0.22,0.09 0.24,0.07 0.25,0.07 0.27,0.07 0.28,0.05 0.3,0.05 0.31,0.04 0.33,0.04 0.35,0.03 0.18,0.01 0.19,0 c 0.25,0 0.84,0.05 0.84,1 0,0.05 0,0.55 -0.64,0.55 -1.66,0 -3.39,-0.16 -5.03,-0.16 -1.71,0 -3.44,0.16 -5.1,0.16 -0.29,0 -0.89,0 -0.89,-1 0,-0.55 0.5,-0.55 0.89,-0.55 2.85,-0.04 3.39,-1.09 3.39,-2.18 0,-0.16 -0.09,-0.91 -0.14,-1.05 l -5.57,-22.17 -11.02,26 c -0.41,0.9 -0.45,0.95 -1.6,0.95 h -6.67 c -1,0 -1.45,0 -1.45,-1 0,-0.55 0.45,-0.55 1.39,-0.55 0.25,0 3.39,0 3.39,-0.45 l -6.67,-26.75 c -0.5,-2 -1.34,-3.59 -5.37,-3.73 -0.32,0 -0.87,-0.05 -0.87,-1 0,-0.35 0.25,-0.55 0.66,-0.55 1.59,0 3.33,0.16 4.99,0.16 1.68,0 3.48,-0.16 5.12,-0.16 0.25,0 0.89,0 0.89,1 0,0.5 -0.44,0.55 -0.98,0.55 -2.89,0.09 -3.3,1.18 -3.3,2.18 0,0.35 0.05,0.6 0.2,1.14 l 6.58,26.32 c 0.21,-0.3 0.21,-0.39 0.46,-0.89 l 12.4,-29.35 c 0.35,-0.86 0.48,-0.95 0.94,-0.95 0.54,0 0.54,0.16 0.79,1.05 z"
           inkscape:connector-curvature="0"
           style="fill:#000000;stroke-width:0" /><path
           id="path14267"
           d="m 680.92,440.78 -7.17,-0.55 v -1.55 c 3.48,0 3.89,-0.34 3.89,-2.79 v -25.91 c 0,-2.23 -0.55,-2.23 -3.89,-2.23 v -1.55 c 1.64,0.05 4.28,0.16 5.53,0.16 1.25,0 3.69,-0.11 5.53,-0.16 v 1.55 c -3.34,0 -3.89,0 -3.89,2.23 z"
           inkscape:connector-curvature="0"
           style="fill:#000000;stroke-width:0" /><path
           id="path14269"
           d="m 691.39,423.34 v -13.36 c 0,-2.23 -0.55,-2.23 -3.89,-2.23 v -1.55 c 1.75,0.05 4.28,0.16 5.62,0.16 1.3,0 3.89,-0.11 5.58,-0.16 v 1.55 c -3.33,0 -3.88,0 -3.88,2.23 v 9.17 c 0,5.19 3.53,7.97 6.72,7.97 3.14,0 3.69,-2.69 3.69,-5.53 v -11.61 c 0,-2.23 -0.55,-2.23 -3.89,-2.23 v -1.55 c 1.75,0.05 4.3,0.16 5.64,0.16 1.3,0 3.87,-0.11 5.58,-0.16 v 1.55 c -2.59,0 -3.84,0 -3.89,1.5 v 9.51 c 0,4.28 0,5.83 -1.55,7.61 -0.69,0.86 -2.34,1.84 -5.22,1.84 -3.64,0 -5.98,-2.14 -7.37,-5.21 v 5.21 l -7.03,-0.54 v -1.55 c 3.48,0 3.89,-0.34 3.89,-2.78 z"
           inkscape:connector-curvature="0"
           style="fill:#000000;stroke-width:0" /><path
           id="path14271"
           d="m 759.7,435 0.09,0.37 0.05,0.18 0.06,0.17 0.06,0.18 0.07,0.17 0.07,0.16 0.08,0.16 0.08,0.16 0.09,0.16 0.1,0.15 0.11,0.14 0.11,0.14 0.13,0.14 0.13,0.13 0.14,0.12 0.15,0.12 0.17,0.11 0.17,0.11 0.19,0.11 0.19,0.09 0.22,0.09 0.22,0.09 0.24,0.07 0.25,0.07 0.27,0.07 0.28,0.05 0.3,0.05 0.31,0.04 0.33,0.04 0.35,0.03 0.18,0.01 0.18,0 c 0.25,0 0.84,0.05 0.84,1 0,0.05 0,0.55 -0.64,0.55 -1.65,0 -3.39,-0.16 -5.03,-0.16 -1.7,0 -3.44,0.16 -5.09,0.16 -0.3,0 -0.89,0 -0.89,-1 0,-0.55 0.5,-0.55 0.89,-0.55 2.84,-0.04 3.39,-1.09 3.39,-2.18 0,-0.16 -0.09,-0.91 -0.14,-1.05 l -5.58,-22.17 -11.02,26 c -0.4,0.9 -0.45,0.95 -1.59,0.95 h -6.67 c -1,0 -1.45,0 -1.45,-1 0,-0.55 0.45,-0.55 1.39,-0.55 0.25,0 3.39,0 3.39,-0.45 l -6.67,-26.75 c -0.5,-2 -1.35,-3.59 -5.38,-3.73 -0.31,0 -0.86,-0.05 -0.86,-1 0,-0.35 0.25,-0.55 0.66,-0.55 1.59,0 3.33,0.16 4.98,0.16 1.69,0 3.49,-0.16 5.13,-0.16 0.25,0 0.89,0 0.89,1 0,0.5 -0.44,0.55 -0.99,0.55 -2.89,0.09 -3.29,1.18 -3.29,2.18 0,0.35 0.04,0.6 0.2,1.14 l 6.58,26.32 c 0.2,-0.3 0.2,-0.39 0.45,-0.89 l 12.41,-29.35 c 0.34,-0.86 0.48,-0.95 0.93,-0.95 0.55,0 0.55,0.16 0.8,1.05 z"
           inkscape:connector-curvature="0"
           style="fill:#000000;stroke-width:0" /><path
           id="path14273"
           d="m 781.89,418.65 0,0.37 -0.01,0.39 0,0.39 -0.02,0.41 -0.04,0.84 -0.06,0.88 -0.08,0.92 -0.11,0.95 -0.13,0.97 -0.16,1.01 -0.2,1.02 -0.23,1.03 -0.27,1.05 -0.3,1.06 -0.35,1.07 -0.39,1.07 -0.22,0.53 -0.22,0.53 -0.24,0.53 -0.25,0.53 c -2.99,6.12 -7.27,9.36 -7.77,9.36 -0.29,0 -0.5,-0.19 -0.5,-0.49 0,-0.15 0,-0.25 0.94,-1.15 4.89,-4.92 7.74,-12.85 7.74,-23.27 0,-8.51 -1.85,-17.28 -8.04,-23.56 -0.64,-0.59 -0.64,-0.7 -0.64,-0.84 0,-0.3 0.21,-0.5 0.5,-0.5 0.5,0 4.97,3.39 7.93,9.71 2.53,5.47 3.12,11 3.12,15.19 z"
           inkscape:connector-curvature="0"
           style="fill:#000000;stroke-width:0" /></g>    </g>
    <text
       xml:space="preserve"
       style="font-size:39.15123367px;font-style:normal;font-weight:normal;line-height:125%;letter-spacing:0px;word-spacing:0px;fill:#000000;fill-opacity:1;stroke:none;font-family:Sans"
       x="20.226856"
       y="908.10339"
       id="text14329"
       sodipodi:linespacing="125%"><tspan
         sodipodi:role="line"
         x="20.226856"
         y="908.10339"
         id="tspan14331">◈ Etude pratique de larges systèmes </tspan><tspan
         sodipodi:role="line"
         x="20.226856"
         y="957.04242"
         id="tspan14405">hétérogènes réels (réseaux, algorithmes, </tspan><tspan
         sodipodi:role="line"
         x="20.226856"
         y="1005.9815"
         id="tspan14409">architectures machines)</tspan></text>
    <text
       sodipodi:linespacing="125%"
       id="text14335"
       y="723.117"
       x="1027.1178"
       style="font-size:39.15123367px;font-style:normal;font-weight:normal;line-height:125%;letter-spacing:0px;word-spacing:0px;fill:#000000;fill-opacity:1;stroke:none;font-family:Sans"
       xml:space="preserve"><tspan
         id="tspan14339"
         y="723.117"
         x="1027.1178"
         sodipodi:role="line"
         style="text-align:start;text-anchor:start">◈ Données &quot;vivantes&quot; </tspan><tspan
         y="772.05603"
         x="1027.1178"
         sodipodi:role="line"
         id="tspan14411"
         style="text-align:start;text-anchor:start">(i.e., non-stationaires) :</tspan><tspan
         y="820.99512"
         x="1027.1178"
         sodipodi:role="line"
         id="tspan14343"
         style="text-align:start;text-anchor:start">flux, developpementales, </tspan><tspan
         y="869.93414"
         x="1027.1178"
         sodipodi:role="line"
         id="tspan14417"
         style="text-align:start;text-anchor:start">intermittentes, volatiles, ...</tspan></text>
    <text
       xml:space="preserve"
       style="font-size:39.15123367px;font-style:normal;font-weight:normal;line-height:125%;letter-spacing:0px;word-spacing:0px;fill:#000000;fill-opacity:1;stroke:none;font-family:Sans"
       x="1030.238"
       y="937.4588"
       id="text14345"
       sodipodi:linespacing="125%"><tspan
         id="tspan14349"
         sodipodi:role="line"
         x="1030.238"
         y="937.4588"
         style="text-align:start;text-anchor:start">◈ Développement </tspan><tspan
         sodipodi:role="line"
         x="1030.238"
         y="986.39783"
         style="text-align:start;text-anchor:start"
         id="tspan14421">d'accelerateurs</tspan><tspan
         sodipodi:role="line"
         x="1030.238"
         y="1035.3369"
         id="tspan14353"
         style="text-align:start;text-anchor:start">matériels sur FPGA</tspan></text>
    <text
       xml:space="preserve"
       style="font-size:37.36827469px;font-style:normal;font-weight:normal;line-height:125%;letter-spacing:0px;word-spacing:0px;fill:#000000;fill-opacity:1;stroke:none;font-family:Sans"
       x="1142.462"
       y="98.718994"
       id="text14357"
       sodipodi:linespacing="125%"><tspan
         sodipodi:role="line"
         id="tspan14359"
         x="1148.4103"
         y="98.718994"
         style="text-align:center;text-anchor:middle">Contributions algorithmiques </tspan><tspan
         sodipodi:role="line"
         x="1142.462"
         y="145.42934"
         id="tspan14363"
         style="text-align:center;text-anchor:middle">(AGKM, AGPCA, AGSVM)</tspan><tspan
         sodipodi:role="line"
         x="1142.462"
         y="192.13968"
         id="tspan14361"
         style="text-align:center;text-anchor:middle" /></text>
    <text
       xml:space="preserve"
       style="font-size:37.36827469px;font-style:normal;font-weight:normal;line-height:125%;letter-spacing:0px;word-spacing:0px;fill:#000000;fill-opacity:1;stroke:none;font-family:Sans"
       x="281.66882"
       y="110.39658"
       id="text14365"
       sodipodi:linespacing="125%"><tspan
         sodipodi:role="line"
         id="tspan14367"
         x="281.66882"
         y="110.39658">Etude théorique</tspan></text>
    <text
       sodipodi:linespacing="125%"
       id="text14379"
       y="276.80219"
       x="237.87788"
       style="font-size:37.36827469px;font-style:normal;font-weight:normal;line-height:125%;letter-spacing:0px;word-spacing:0px;fill:#000000;fill-opacity:1;stroke:none;font-family:Sans"
       xml:space="preserve"><tspan
         y="276.80219"
         x="237.87788"
         id="tspan14381"
         sodipodi:role="line">Recherche par similarité</tspan></text>
    <text
       xml:space="preserve"
       style="font-size:37.36827469px;font-style:normal;font-weight:normal;line-height:125%;letter-spacing:0px;word-spacing:0px;fill:#000000;fill-opacity:1;stroke:none;font-family:Sans"
       x="925.39575"
       y="276.80219"
       id="text14383"
       sodipodi:linespacing="125%"><tspan
         sodipodi:role="line"
         id="tspan14385"
         x="925.39575"
         y="276.80219">Classification d'images</tspan></text>
  </g>
  <g
     transform="translate(29.6875,-104.6875)"
     id="g7517" />
</svg>
